<svg version="1" xmlns="http://www.w3.org/2000/svg" width="666.667" height="666.667" viewBox="0 0 500.000000 500.000000"><path d="M154.6 98.5C101.3 151.6 57.4 195 56.9 195s-.9.4-.9.9C56 197 24 229 22.8 229c-.4 0-.8.4-.8.8C22 230.9 2.9 250 1.8 250c-2.4 0-.1 4.3 5.2 9.4 3.3 3.2 6 6.2 6 6.8 0 .5.4.6 1 .3.5-.3 1-.1 1 .5 0 1.2 2.4 4 3.4 4 .7 0 8.6 8.3 8.6 9 0 .4 1.1 1.3 2.5 2 1.3.7 2.2 1.7 1.9 2.2-.3.4-.1.8.5.8s1.9.9 2.9 2c1.8 1.9 1.9 1.9 8-4.5 3.4-3.6 6.2-6.2 6.2-5.8 0 .5.4.2.9-.6.8-1.2 44.1-45 44.1-44.6 0 .4 25.4-25.5 26.1-26.6.5-.8.9-1.1.9-.8 0 1 47-46.3 47-47.4 0-.6.2-.8.6-.5.3.3 19-17.9 41.5-40.4 29.5-29.4 41.4-40.7 42.2-40 .7.6 47.8 47.4 104.7 104.2 56.9 56.7 104.2 103.8 105.1 104.5 1.4 1.3 3.6-.5 19.7-16.6l18.2-18.1-32.7-32.6-32.6-32.5V83H383l-.1 2.2c-.1 1.3-.1 11.7-.1 23.3 0 11.5-.1 21.6-.4 22.3-.2.8-27.3-25.4-65.5-63.5-35.7-35.6-65.1-64.9-65.3-65-.1-.2-43.8 43.1-97 96.2z"/><path d="M72 285.5c0 .6-1.8 1-3.9.8l-4-.2.1 18.4c0 10.1-.3 18.8-.6 19.4-.4.6-.4 1.1.1 1.1.4 0 .7 38.9.6 86.5l-.1 86.5h371.6l.1-104.4V289.1l-10.5-.3c-6.5-.2-10.4.1-10.4.7 0 .7-.3.7-.8 0-.8-1.2-10.2-1.4-10.2-.2 0 .5-.5.5-1.1.1-1.5-.9-16.8-.8-17.7.1-.4.4-.8 35.6-.8 78.3-.1 42.7-.2 77.9-.3 78.3-.1.7-266.4.5-267.6-.3-.7-.4-1-28.2-1-80.2l.1-79.5-2.1.3c-1.1.2-2.8-.1-3.8-.6-.9-.5-2.2-.6-2.8-.2-1.8 1.1-13.9 1-13.9-.1 0-.7-.3-.7-.8 0-.4.5-2 1-3.7 1-1.6 0-3.3-.5-3.7-1-.5-.7-.8-.7-.8 0 0 1.3-10.3 1.3-11.2 0-.5-.7-.8-.7-.8 0z"/></svg>